<?xml version="1.0" standalone="no"?>
<!DOCTYPE svg PUBLIC "-//W3C//DTD SVG 20010904//EN"
 "http://www.w3.org/TR/2001/REC-SVG-20010904/DTD/svg10.dtd">
<svg version="1.0" xmlns="http://www.w3.org/2000/svg"
 width="512.000000pt" height="512.000000pt" viewBox="0 0 512.000000 512.000000"
 preserveAspectRatio="xMidYMid meet">

<g transform="translate(0.000000,512.000000) scale(0.100000,-0.100000)"
fill="#FFFFFF" stroke="blue">
<path d="M1082 4876 c-42 -90 -100 -149 -188 -193 -41 -20 -74 -39 -74 -43 0
-4 33 -23 74 -43 88 -44 146 -103 188 -193 16 -35 34 -64 38 -64 4 0 22 29 38
64 42 90 100 149 188 193 41 20 74 39 74 43 0 4 -33 23 -74 43 -88 44 -146
103 -188 193 -16 35 -34 64 -38 64 -4 0 -22 -29 -38 -64z"/>
<path d="M2890 4626 c-239 -32 -408 -83 -625 -192 -296 -147 -520 -340 -717
-615 -84 -117 -206 -360 -252 -499 -171 -527 -109 -1095 173 -1579 50 -85 167
-241 245 -326 l54 -60 84 83 83 82 592 0 c401 0 609 -4 645 -11 164 -35 302
-173 337 -337 13 -64 14 -136 2 -180 l-10 -32 72 0 72 0 395 181 395 180 69
72 c445 467 628 1115 490 1736 -39 172 -77 280 -160 446 -151 305 -365 550
-643 736 -232 156 -477 254 -766 304 -125 22 -404 28 -535 11z m622 -478 c48
-14 121 -76 138 -118 l12 -30 274 0 274 0 77 -77 78 -78 -351 -3 -352 -2 -12
-30 c-28 -68 -129 -130 -210 -130 -81 0 -182 62 -210 130 l-12 30 -272 0 -271
0 -200 -200 -200 -200 -120 0 -120 0 400 -400 400 -400 565 0 565 0 200 200
200 200 -391 0 -392 0 -12 -30 c-28 -68 -129 -130 -210 -130 -124 0 -240 116
-240 240 0 124 116 240 240 240 81 0 182 -62 210 -130 l12 -30 574 0 c537 0
573 -1 578 -17 3 -10 10 -38 16 -63 6 -25 13 -53 16 -62 5 -16 -4 -18 -83 -18
l-88 0 -280 -280 -280 -280 -635 0 -635 0 -480 480 -480 480 -99 0 c-112 0
-109 -7 -50 98 l35 62 257 0 257 0 200 200 200 200 306 0 307 0 12 30 c16 39
89 104 132 117 45 15 103 15 150 1z m-1358 -1440 c86 -26 166 -136 166 -228 0
-124 -116 -240 -240 -240 -81 0 -182 62 -210 130 l-12 30 -193 0 -193 0 -11
63 c-19 107 -39 97 193 97 l204 0 12 30 c16 39 89 104 132 117 46 15 103 15
152 1z m2592 -405 c-3 -10 -14 -45 -24 -78 l-18 -60 -55 -3 -55 -3 -199 -199
-200 -200 -186 0 -187 0 -12 -30 c-28 -68 -129 -130 -210 -130 -81 0 -182 62
-210 130 l-12 30 -818 0 -818 0 -46 72 c-25 39 -46 75 -46 80 0 4 389 8 864 8
l864 0 12 30 c28 68 129 130 210 130 81 0 182 -62 210 -130 l12 -30 152 0 151
0 200 200 200 200 113 0 c103 0 113 -2 108 -17z"/>
<path d="M1835 1200 l-160 -160 -277 0 -278 0 0 -440 0 -440 1321 0 1320 0
587 331 c323 181 600 342 615 357 133 126 81 359 -93 417 -105 35 -114 32
-678 -229 l-512 -236 -278 1 c-152 0 -266 4 -252 8 83 26 141 74 181 151 19
35 24 61 24 120 -1 90 -30 157 -95 212 -79 68 -78 68 -704 68 l-561 0 -160
-160z"/>
<path d="M80 600 l0 -440 440 0 440 0 0 440 0 440 -440 0 -440 0 0 -440z"/>
</g>
</svg>
